<?xml version="1.0" standalone="no"?>
<!DOCTYPE svg PUBLIC "-//W3C//DTD SVG 20010904//EN"
 "http://www.w3.org/TR/2001/REC-SVG-20010904/DTD/svg10.dtd">
<svg version="1.0" xmlns="http://www.w3.org/2000/svg"
 width="500.000000pt" height="500.000000pt" viewBox="0 0 500.000000 500.000000"
 preserveAspectRatio="xMidYMid meet">
<metadata>
Created by potrace 1.11, written by Peter Selinger 2001-2013
</metadata>
<g transform="translate(0.000000,500.000000) scale(0.100000,-0.100000)"
fill="#000000" stroke="none">
<path d="M4067 4603 c-2 -1 -19 -5 -38 -7 -91 -12 -215 -85 -278 -165 -117
-149 -133 -354 -41 -518 47 -83 135 -164 216 -198 l31 -13 -2 -928 c-2 -927
-2 -929 -24 -1004 -24 -79 -91 -216 -132 -266 -58 -71 -153 -153 -223 -193
-42 -24 -80 -41 -83 -37 -9 8 -10 785 -1 799 4 6 37 12 76 12 77 1 116 19 132
61 6 14 10 146 10 294 l0 270 -29 32 -29 33 -379 3 c-208 1 -383 4 -389 6 -5
2 -9 21 -9 42 2 30 10 44 41 73 91 82 142 191 149 311 7 136 -41 258 -140 355
-93 91 -128 112 -242 143 -169 47 -329 1 -446 -128 -52 -57 -107 -154 -121
-213 -7 -28 -26 -29 -26 -1 0 18 -51 123 -82 167 -34 50 -114 122 -164 147
-157 78 -352 56 -501 -57 -178 -134 -247 -347 -177 -546 44 -125 148 -222 293
-273 53 -18 60 -23 36 -24 -16 0 -234 -1 -483 -1 -249 -1 -465 -4 -480 -8 -15
-4 -36 -21 -48 -38 -20 -30 -21 -43 -20 -304 1 -295 4 -310 54 -331 15 -6 64
-12 109 -12 45 -1 84 -4 88 -8 4 -3 7 -363 6 -800 0 -506 4 -802 10 -818 5
-14 22 -34 37 -45 26 -19 49 -19 1340 -19 l1314 0 32 35 32 35 0 234 -1 235
80 30 c307 116 542 359 646 668 53 156 52 144 54 1140 l1 927 53 26 c107 54
211 179 240 289 44 168 -6 345 -131 461 -92 84 -187 123 -320 128 -21 1 -40 1
-41 -1z m122 -329 c116 -68 91 -249 -38 -281 -165 -41 -264 168 -129 270 18
14 42 27 53 29 32 7 86 -1 114 -18z m-2417 -792 c56 -38 100 -103 128 -188 24
-71 25 -74 35 -154 11 -76 10 -139 -2 -151 -31 -31 -249 -32 -372 -2 -93 23
-179 90 -201 158 -48 145 29 292 187 356 73 29 166 22 225 -19z m904 12 c94
-38 179 -144 184 -229 6 -87 4 -90 -90 -183 -87 -87 -92 -90 -154 -102 -90
-17 -308 -18 -334 -1 -41 26 -5 265 58 392 28 55 97 122 141 136 53 17 134 12
195 -13z"/>
</g>
</svg>
